<?xml version="1.0" encoding="utf-8" standalone="no"?>
<!DOCTYPE svg PUBLIC "-//W3C//DTD SVG 1.1//EN"
  "http://www.w3.org/Graphics/SVG/1.1/DTD/svg11.dtd">
<!-- Created with matplotlib (https://matplotlib.org/) -->
<svg height="201.6pt" version="1.1" viewBox="0 0 460.8 201.6" width="460.8pt" xmlns="http://www.w3.org/2000/svg" xmlns:xlink="http://www.w3.org/1999/xlink">
 <defs>
  <style type="text/css">
*{stroke-linecap:butt;stroke-linejoin:round;}
  </style>
 </defs>
 <g id="figure_1">
  <g id="patch_1">
   <path d="M 0 201.6 
L 460.8 201.6 
L 460.8 0 
L 0 0 
z
" style="fill:#ffffff;"/>
  </g>
  <g id="axes_1">
   <g id="line2d_1">
    <path clip-path="url(#pef656c95eb)" d="M 117.12 37.258812 
L 117.12 123.137414 
" style="fill:none;stroke:#c0c0c0;stroke-dasharray:1,1.65;stroke-dashoffset:0;"/>
   </g>
   <g id="line2d_2">
    <path clip-path="url(#pef656c95eb)" d="M 182.050909 37.258812 
L 182.050909 123.137414 
" style="fill:none;stroke:#c0c0c0;stroke-dasharray:1,1.65;stroke-dashoffset:0;"/>
   </g>
   <g id="line2d_3">
    <path clip-path="url(#pef656c95eb)" d="M 246.981818 37.258812 
L 246.981818 123.137414 
" style="fill:none;stroke:#c0c0c0;stroke-dasharray:1,1.65;stroke-dashoffset:0;"/>
   </g>
   <g id="line2d_4">
    <path clip-path="url(#pef656c95eb)" d="M 268.625455 80.198113 
L 268.625455 123.137414 
" style="fill:none;stroke:#c0c0c0;stroke-dasharray:1,1.65;stroke-dashoffset:0;"/>
   </g>
   <g id="line2d_5">
    <path clip-path="url(#pef656c95eb)" d="M 117.12 123.137414 
L 117.12 166.076716 
" style="fill:none;stroke:#c0c0c0;stroke-dasharray:1,1.65;stroke-dashoffset:0;"/>
   </g>
   <g id="line2d_6">
    <path clip-path="url(#pef656c95eb)" d="M 182.050909 123.137414 
L 182.050909 166.076716 
" style="fill:none;stroke:#c0c0c0;stroke-dasharray:1,1.65;stroke-dashoffset:0;"/>
   </g>
   <g id="line2d_7">
    <path clip-path="url(#pef656c95eb)" d="M 246.981818 123.137414 
L 246.981818 166.076716 
" style="fill:none;stroke:#c0c0c0;stroke-dasharray:1,1.65;stroke-dashoffset:0;"/>
   </g>
   <g id="line2d_8">
    <path clip-path="url(#pef656c95eb)" d="M 311.912727 123.137414 
L 311.912727 166.076716 
" style="fill:none;stroke:#c0c0c0;stroke-dasharray:1,1.65;stroke-dashoffset:0;"/>
   </g>
   <g id="line2d_9">
    <path clip-path="url(#pef656c95eb)" d="M 355.2 123.137414 
L 355.2 166.076716 
" style="fill:none;stroke:#c0c0c0;stroke-dasharray:1,1.65;stroke-dashoffset:0;"/>
   </g>
   <g id="line2d_10">
    <path clip-path="url(#pef656c95eb)" d="M 73.832727 37.258812 
L 311.912727 37.258812 
" style="fill:none;stroke:#337ab7;stroke-linecap:square;stroke-width:2;"/>
   </g>
   <g id="line2d_11">
    <path clip-path="url(#pef656c95eb)" d="M 268.625455 80.198113 
L 398.487273 80.198113 
" style="fill:none;stroke:#337ab7;stroke-linecap:square;stroke-width:2;"/>
   </g>
   <g id="line2d_12">
    <path clip-path="url(#pef656c95eb)" d="M 73.832727 166.076716 
L 398.487273 166.076716 
" style="fill:none;stroke:#337ab7;stroke-linecap:square;stroke-width:2;"/>
   </g>
   <g id="PathCollection_1">
    <defs>
     <path d="M -0 3 
L 3 -3 
L -3 -3 
z
" id="m4e0ef4737e" style="stroke:#c0c0c0;"/>
    </defs>
    <g clip-path="url(#pef656c95eb)">
     <use style="fill:#c0c0c0;stroke:#c0c0c0;" x="117.12" xlink:href="#m4e0ef4737e" y="110.255624"/>
    </g>
   </g>
   <g id="PathCollection_2">
    <g clip-path="url(#pef656c95eb)">
     <use style="fill:#c0c0c0;stroke:#c0c0c0;" x="182.050909" xlink:href="#m4e0ef4737e" y="110.255624"/>
    </g>
   </g>
   <g id="PathCollection_3">
    <g clip-path="url(#pef656c95eb)">
     <use style="fill:#c0c0c0;stroke:#c0c0c0;" x="246.981818" xlink:href="#m4e0ef4737e" y="110.255624"/>
    </g>
   </g>
   <g id="PathCollection_4">
    <g clip-path="url(#pef656c95eb)">
     <use style="fill:#c0c0c0;stroke:#c0c0c0;" x="268.625455" xlink:href="#m4e0ef4737e" y="110.255624"/>
    </g>
   </g>
   <g id="PathCollection_5">
    <g clip-path="url(#pef656c95eb)">
     <use style="fill:#c0c0c0;stroke:#c0c0c0;" x="117.12" xlink:href="#m4e0ef4737e" y="153.194925"/>
    </g>
   </g>
   <g id="PathCollection_6">
    <g clip-path="url(#pef656c95eb)">
     <use style="fill:#c0c0c0;stroke:#c0c0c0;" x="182.050909" xlink:href="#m4e0ef4737e" y="153.194925"/>
    </g>
   </g>
   <g id="PathCollection_7">
    <g clip-path="url(#pef656c95eb)">
     <use style="fill:#c0c0c0;stroke:#c0c0c0;" x="246.981818" xlink:href="#m4e0ef4737e" y="153.194925"/>
    </g>
   </g>
   <g id="PathCollection_8">
    <g clip-path="url(#pef656c95eb)">
     <use style="fill:#c0c0c0;stroke:#c0c0c0;" x="311.912727" xlink:href="#m4e0ef4737e" y="153.194925"/>
    </g>
   </g>
   <g id="PathCollection_9">
    <g clip-path="url(#pef656c95eb)">
     <use style="fill:#c0c0c0;stroke:#c0c0c0;" x="355.2" xlink:href="#m4e0ef4737e" y="153.194925"/>
    </g>
   </g>
   <g id="PathCollection_10">
    <defs>
     <path d="M -6.266571 6.266571 
L 6.266571 -6.266571 
M -6.266571 -6.266571 
L 6.266571 6.266571 
" id="m4a63b85bc7" style="stroke:#337ab7;stroke-width:2;"/>
    </defs>
    <g clip-path="url(#pef656c95eb)">
     <use style="fill:#337ab7;stroke:#337ab7;stroke-width:2;" x="311.912727" xlink:href="#m4a63b85bc7" y="37.258812"/>
    </g>
   </g>
   <g id="PathCollection_11">
    <defs>
     <path d="M 0 8.862269 
C 2.350301 8.862269 4.604657 7.928485 6.266571 6.266571 
C 7.928485 4.604657 8.862269 2.350301 8.862269 0 
C 8.862269 -2.350301 7.928485 -4.604657 6.266571 -6.266571 
C 4.604657 -7.928485 2.350301 -8.862269 0 -8.862269 
C -2.350301 -8.862269 -4.604657 -7.928485 -6.266571 -6.266571 
C -7.928485 -4.604657 -8.862269 -2.350301 -8.862269 0 
C -8.862269 2.350301 -7.928485 4.604657 -6.266571 6.266571 
C -4.604657 7.928485 -2.350301 8.862269 0 8.862269 
z
" id="m39700542e8" style="stroke:#337ab7;stroke-width:2;"/>
    </defs>
    <g clip-path="url(#pef656c95eb)">
     <use style="fill:#e0e8ff;stroke:#337ab7;stroke-width:2;" x="117.12" xlink:href="#m39700542e8" y="37.258812"/>
     <use style="fill:#e0e8ff;stroke:#337ab7;stroke-width:2;" x="182.050909" xlink:href="#m39700542e8" y="37.258812"/>
     <use style="fill:#e0e8ff;stroke:#337ab7;stroke-width:2;" x="246.981818" xlink:href="#m39700542e8" y="37.258812"/>
    </g>
   </g>
   <g id="PathCollection_12">
    <defs>
     <path d="M 0 6.266571 
L 0 -6.266571 
" id="mc4ea44d0ad" style="stroke:#337ab7;stroke-width:2;"/>
    </defs>
    <g clip-path="url(#pef656c95eb)">
     <use style="fill:#337ab7;stroke:#337ab7;stroke-width:2;" x="398.487273" xlink:href="#mc4ea44d0ad" y="80.198113"/>
    </g>
   </g>
   <g id="PathCollection_13">
    <g clip-path="url(#pef656c95eb)">
     <use style="fill:#e0e8ff;stroke:#337ab7;stroke-width:2;" x="311.912727" xlink:href="#m39700542e8" y="80.198113"/>
     <use style="fill:#e0e8ff;stroke:#337ab7;stroke-width:2;" x="355.2" xlink:href="#m39700542e8" y="80.198113"/>
    </g>
   </g>
   <g id="PathCollection_14">
    <defs>
     <path d="M 0 8.862269 
C 2.350301 8.862269 4.604657 7.928485 6.266571 6.266571 
C 7.928485 4.604657 8.862269 2.350301 8.862269 0 
C 8.862269 -2.350301 7.928485 -4.604657 6.266571 -6.266571 
C 4.604657 -7.928485 2.350301 -8.862269 0 -8.862269 
C -2.350301 -8.862269 -4.604657 -7.928485 -6.266571 -6.266571 
C -7.928485 -4.604657 -8.862269 -2.350301 -8.862269 0 
C -8.862269 2.350301 -7.928485 4.604657 -6.266571 6.266571 
C -4.604657 7.928485 -2.350301 8.862269 0 8.862269 
z
" id="m07eb875a88" style="stroke:#337ab7;stroke-width:2;"/>
    </defs>
    <g clip-path="url(#pef656c95eb)">
     <use style="fill:#337ab7;stroke:#337ab7;stroke-width:2;" x="268.625455" xlink:href="#m07eb875a88" y="80.198113"/>
    </g>
   </g>
   <g id="PathCollection_15">
    <g clip-path="url(#pef656c95eb)">
     <use style="fill:#337ab7;stroke:#337ab7;stroke-width:2;" x="398.487273" xlink:href="#mc4ea44d0ad" y="166.076716"/>
    </g>
   </g>
   <g id="PathCollection_16">
    <g clip-path="url(#pef656c95eb)">
     <use style="fill:#e0e8ff;stroke:#337ab7;stroke-width:2;" x="117.12" xlink:href="#m39700542e8" y="166.076716"/>
     <use style="fill:#e0e8ff;stroke:#337ab7;stroke-width:2;" x="182.050909" xlink:href="#m39700542e8" y="166.076716"/>
     <use style="fill:#e0e8ff;stroke:#337ab7;stroke-width:2;" x="246.981818" xlink:href="#m39700542e8" y="166.076716"/>
     <use style="fill:#e0e8ff;stroke:#337ab7;stroke-width:2;" x="311.912727" xlink:href="#m39700542e8" y="166.076716"/>
     <use style="fill:#e0e8ff;stroke:#337ab7;stroke-width:2;" x="355.2" xlink:href="#m39700542e8" y="166.076716"/>
    </g>
   </g>
   <g id="patch_2">
    <path clip-path="url(#pef656c95eb)" d="M 73.832727 129.57831 
L 398.487273 129.57831 
L 398.487273 114.549554 
L 73.832727 114.549554 
z
" style="fill:#f0f0f0;stroke:#337ab7;stroke-linejoin:miter;stroke-width:2;"/>
   </g>
   <g id="text_1">
    <!-- 1 -->
    <defs>
     <path d="M 12.40625 8.296875 
L 28.515625 8.296875 
L 28.515625 63.921875 
L 10.984375 60.40625 
L 10.984375 69.390625 
L 28.421875 72.90625 
L 38.28125 72.90625 
L 38.28125 8.296875 
L 54.390625 8.296875 
L 54.390625 0 
L 12.40625 0 
z
" id="DejaVuSans-49"/>
    </defs>
    <g transform="translate(113.93875 40.018187)scale(0.1 -0.1)">
     <use xlink:href="#DejaVuSans-49"/>
    </g>
   </g>
   <g id="text_2">
    <!-- 2 -->
    <defs>
     <path d="M 19.1875 8.296875 
L 53.609375 8.296875 
L 53.609375 0 
L 7.328125 0 
L 7.328125 8.296875 
Q 12.9375 14.109375 22.625 23.890625 
Q 32.328125 33.6875 34.8125 36.53125 
Q 39.546875 41.84375 41.421875 45.53125 
Q 43.3125 49.21875 43.3125 52.78125 
Q 43.3125 58.59375 39.234375 62.25 
Q 35.15625 65.921875 28.609375 65.921875 
Q 23.96875 65.921875 18.8125 64.3125 
Q 13.671875 62.703125 7.8125 59.421875 
L 7.8125 69.390625 
Q 13.765625 71.78125 18.9375 73 
Q 24.125 74.21875 28.421875 74.21875 
Q 39.75 74.21875 46.484375 68.546875 
Q 53.21875 62.890625 53.21875 53.421875 
Q 53.21875 48.921875 51.53125 44.890625 
Q 49.859375 40.875 45.40625 35.40625 
Q 44.1875 33.984375 37.640625 27.21875 
Q 31.109375 20.453125 19.1875 8.296875 
z
" id="DejaVuSans-50"/>
    </defs>
    <g transform="translate(178.869659 40.018187)scale(0.1 -0.1)">
     <use xlink:href="#DejaVuSans-50"/>
    </g>
   </g>
   <g id="text_3">
    <!-- 3 -->
    <defs>
     <path d="M 40.578125 39.3125 
Q 47.65625 37.796875 51.625 33 
Q 55.609375 28.21875 55.609375 21.1875 
Q 55.609375 10.40625 48.1875 4.484375 
Q 40.765625 -1.421875 27.09375 -1.421875 
Q 22.515625 -1.421875 17.65625 -0.515625 
Q 12.796875 0.390625 7.625 2.203125 
L 7.625 11.71875 
Q 11.71875 9.328125 16.59375 8.109375 
Q 21.484375 6.890625 26.8125 6.890625 
Q 36.078125 6.890625 40.9375 10.546875 
Q 45.796875 14.203125 45.796875 21.1875 
Q 45.796875 27.640625 41.28125 31.265625 
Q 36.765625 34.90625 28.71875 34.90625 
L 20.21875 34.90625 
L 20.21875 43.015625 
L 29.109375 43.015625 
Q 36.375 43.015625 40.234375 45.921875 
Q 44.09375 48.828125 44.09375 54.296875 
Q 44.09375 59.90625 40.109375 62.90625 
Q 36.140625 65.921875 28.71875 65.921875 
Q 24.65625 65.921875 20.015625 65.03125 
Q 15.375 64.15625 9.8125 62.3125 
L 9.8125 71.09375 
Q 15.4375 72.65625 20.34375 73.4375 
Q 25.25 74.21875 29.59375 74.21875 
Q 40.828125 74.21875 47.359375 69.109375 
Q 53.90625 64.015625 53.90625 55.328125 
Q 53.90625 49.265625 50.4375 45.09375 
Q 46.96875 40.921875 40.578125 39.3125 
z
" id="DejaVuSans-51"/>
    </defs>
    <g transform="translate(243.800568 40.018187)scale(0.1 -0.1)">
     <use xlink:href="#DejaVuSans-51"/>
    </g>
   </g>
   <g id="text_4">
    <!-- a -->
    <defs>
     <path d="M 34.28125 27.484375 
Q 23.390625 27.484375 19.1875 25 
Q 14.984375 22.515625 14.984375 16.5 
Q 14.984375 11.71875 18.140625 8.90625 
Q 21.296875 6.109375 26.703125 6.109375 
Q 34.1875 6.109375 38.703125 11.40625 
Q 43.21875 16.703125 43.21875 25.484375 
L 43.21875 27.484375 
z
M 52.203125 31.203125 
L 52.203125 0 
L 43.21875 0 
L 43.21875 8.296875 
Q 40.140625 3.328125 35.546875 0.953125 
Q 30.953125 -1.421875 24.3125 -1.421875 
Q 15.921875 -1.421875 10.953125 3.296875 
Q 6 8.015625 6 15.921875 
Q 6 25.140625 12.171875 29.828125 
Q 18.359375 34.515625 30.609375 34.515625 
L 43.21875 34.515625 
L 43.21875 35.40625 
Q 43.21875 41.609375 39.140625 45 
Q 35.0625 48.390625 27.6875 48.390625 
Q 23 48.390625 18.546875 47.265625 
Q 14.109375 46.140625 10.015625 43.890625 
L 10.015625 52.203125 
Q 14.9375 54.109375 19.578125 55.046875 
Q 24.21875 56 28.609375 56 
Q 40.484375 56 46.34375 49.84375 
Q 52.203125 43.703125 52.203125 31.203125 
z
" id="DejaVuSans-97"/>
    </defs>
    <g transform="translate(265.561392 82.957488)scale(0.1 -0.1)">
     <use xlink:href="#DejaVuSans-97"/>
    </g>
   </g>
   <g id="text_5">
    <!-- 7 -->
    <defs>
     <path d="M 8.203125 72.90625 
L 55.078125 72.90625 
L 55.078125 68.703125 
L 28.609375 0 
L 18.3125 0 
L 43.21875 64.59375 
L 8.203125 64.59375 
z
" id="DejaVuSans-55"/>
    </defs>
    <g transform="translate(308.731477 82.957488)scale(0.1 -0.1)">
     <use xlink:href="#DejaVuSans-55"/>
    </g>
   </g>
   <g id="text_6">
    <!-- 8 -->
    <defs>
     <path d="M 31.78125 34.625 
Q 24.75 34.625 20.71875 30.859375 
Q 16.703125 27.09375 16.703125 20.515625 
Q 16.703125 13.921875 20.71875 10.15625 
Q 24.75 6.390625 31.78125 6.390625 
Q 38.8125 6.390625 42.859375 10.171875 
Q 46.921875 13.96875 46.921875 20.515625 
Q 46.921875 27.09375 42.890625 30.859375 
Q 38.875 34.625 31.78125 34.625 
z
M 21.921875 38.8125 
Q 15.578125 40.375 12.03125 44.71875 
Q 8.5 49.078125 8.5 55.328125 
Q 8.5 64.0625 14.71875 69.140625 
Q 20.953125 74.21875 31.78125 74.21875 
Q 42.671875 74.21875 48.875 69.140625 
Q 55.078125 64.0625 55.078125 55.328125 
Q 55.078125 49.078125 51.53125 44.71875 
Q 48 40.375 41.703125 38.8125 
Q 48.828125 37.15625 52.796875 32.3125 
Q 56.78125 27.484375 56.78125 20.515625 
Q 56.78125 9.90625 50.3125 4.234375 
Q 43.84375 -1.421875 31.78125 -1.421875 
Q 19.734375 -1.421875 13.25 4.234375 
Q 6.78125 9.90625 6.78125 20.515625 
Q 6.78125 27.484375 10.78125 32.3125 
Q 14.796875 37.15625 21.921875 38.8125 
z
M 18.3125 54.390625 
Q 18.3125 48.734375 21.84375 45.5625 
Q 25.390625 42.390625 31.78125 42.390625 
Q 38.140625 42.390625 41.71875 45.5625 
Q 45.3125 48.734375 45.3125 54.390625 
Q 45.3125 60.0625 41.71875 63.234375 
Q 38.140625 66.40625 31.78125 66.40625 
Q 25.390625 66.40625 21.84375 63.234375 
Q 18.3125 60.0625 18.3125 54.390625 
z
" id="DejaVuSans-56"/>
    </defs>
    <g transform="translate(352.01875 82.957488)scale(0.1 -0.1)">
     <use xlink:href="#DejaVuSans-56"/>
    </g>
   </g>
   <g id="text_7">
    <!-- catch(a) -->
    <defs>
     <path d="M 48.78125 52.59375 
L 48.78125 44.1875 
Q 44.96875 46.296875 41.140625 47.34375 
Q 37.3125 48.390625 33.40625 48.390625 
Q 24.65625 48.390625 19.8125 42.84375 
Q 14.984375 37.3125 14.984375 27.296875 
Q 14.984375 17.28125 19.8125 11.734375 
Q 24.65625 6.203125 33.40625 6.203125 
Q 37.3125 6.203125 41.140625 7.25 
Q 44.96875 8.296875 48.78125 10.40625 
L 48.78125 2.09375 
Q 45.015625 0.34375 40.984375 -0.53125 
Q 36.96875 -1.421875 32.421875 -1.421875 
Q 20.0625 -1.421875 12.78125 6.34375 
Q 5.515625 14.109375 5.515625 27.296875 
Q 5.515625 40.671875 12.859375 48.328125 
Q 20.21875 56 33.015625 56 
Q 37.15625 56 41.109375 55.140625 
Q 45.0625 54.296875 48.78125 52.59375 
z
" id="DejaVuSans-99"/>
     <path d="M 18.3125 70.21875 
L 18.3125 54.6875 
L 36.8125 54.6875 
L 36.8125 47.703125 
L 18.3125 47.703125 
L 18.3125 18.015625 
Q 18.3125 11.328125 20.140625 9.421875 
Q 21.96875 7.515625 27.59375 7.515625 
L 36.8125 7.515625 
L 36.8125 0 
L 27.59375 0 
Q 17.1875 0 13.234375 3.875 
Q 9.28125 7.765625 9.28125 18.015625 
L 9.28125 47.703125 
L 2.6875 47.703125 
L 2.6875 54.6875 
L 9.28125 54.6875 
L 9.28125 70.21875 
z
" id="DejaVuSans-116"/>
     <path d="M 54.890625 33.015625 
L 54.890625 0 
L 45.90625 0 
L 45.90625 32.71875 
Q 45.90625 40.484375 42.875 44.328125 
Q 39.84375 48.1875 33.796875 48.1875 
Q 26.515625 48.1875 22.3125 43.546875 
Q 18.109375 38.921875 18.109375 30.90625 
L 18.109375 0 
L 9.078125 0 
L 9.078125 75.984375 
L 18.109375 75.984375 
L 18.109375 46.1875 
Q 21.34375 51.125 25.703125 53.5625 
Q 30.078125 56 35.796875 56 
Q 45.21875 56 50.046875 50.171875 
Q 54.890625 44.34375 54.890625 33.015625 
z
" id="DejaVuSans-104"/>
     <path d="M 31 75.875 
Q 24.46875 64.65625 21.28125 53.65625 
Q 18.109375 42.671875 18.109375 31.390625 
Q 18.109375 20.125 21.3125 9.0625 
Q 24.515625 -2 31 -13.1875 
L 23.1875 -13.1875 
Q 15.875 -1.703125 12.234375 9.375 
Q 8.59375 20.453125 8.59375 31.390625 
Q 8.59375 42.28125 12.203125 53.3125 
Q 15.828125 64.359375 23.1875 75.875 
z
" id="DejaVuSans-40"/>
     <path d="M 8.015625 75.875 
L 15.828125 75.875 
Q 23.140625 64.359375 26.78125 53.3125 
Q 30.421875 42.28125 30.421875 31.390625 
Q 30.421875 20.453125 26.78125 9.375 
Q 23.140625 -1.703125 15.828125 -13.1875 
L 8.015625 -13.1875 
Q 14.5 -2 17.703125 9.0625 
Q 20.90625 20.125 20.90625 31.390625 
Q 20.90625 42.671875 17.703125 53.65625 
Q 14.5 64.65625 8.015625 75.875 
z
" id="DejaVuSans-41"/>
    </defs>
    <g transform="translate(215.502969 125.896789)scale(0.1 -0.1)">
     <use xlink:href="#DejaVuSans-99"/>
     <use x="54.980469" xlink:href="#DejaVuSans-97"/>
     <use x="116.259766" xlink:href="#DejaVuSans-116"/>
     <use x="155.46875" xlink:href="#DejaVuSans-99"/>
     <use x="210.449219" xlink:href="#DejaVuSans-104"/>
     <use x="273.828125" xlink:href="#DejaVuSans-40"/>
     <use x="312.841797" xlink:href="#DejaVuSans-97"/>
     <use x="374.121094" xlink:href="#DejaVuSans-41"/>
    </g>
   </g>
   <g id="text_8">
    <!-- 1 -->
    <g transform="translate(113.93875 168.836091)scale(0.1 -0.1)">
     <use xlink:href="#DejaVuSans-49"/>
    </g>
   </g>
   <g id="text_9">
    <!-- 2 -->
    <g transform="translate(178.869659 168.836091)scale(0.1 -0.1)">
     <use xlink:href="#DejaVuSans-50"/>
    </g>
   </g>
   <g id="text_10">
    <!-- 3 -->
    <g transform="translate(243.800568 168.836091)scale(0.1 -0.1)">
     <use xlink:href="#DejaVuSans-51"/>
    </g>
   </g>
   <g id="text_11">
    <!-- 7 -->
    <g transform="translate(308.731477 168.836091)scale(0.1 -0.1)">
     <use xlink:href="#DejaVuSans-55"/>
    </g>
   </g>
   <g id="text_12">
    <!-- 8 -->
    <g transform="translate(352.01875 168.836091)scale(0.1 -0.1)">
     <use xlink:href="#DejaVuSans-56"/>
    </g>
   </g>
  </g>
 </g>
 <defs>
  <clipPath id="pef656c95eb">
   <rect height="155.232" width="357.12" x="57.6" y="24.192"/>
  </clipPath>
 </defs>
</svg>
