<?xml version="1.0" encoding="utf-8" standalone="no"?>
<!DOCTYPE svg PUBLIC "-//W3C//DTD SVG 1.1//EN"
  "http://www.w3.org/Graphics/SVG/1.1/DTD/svg11.dtd">
<!-- Created with matplotlib (https://matplotlib.org/) -->
<svg height="151.2pt" version="1.1" viewBox="0 0 460.8 151.2" width="460.8pt" xmlns="http://www.w3.org/2000/svg" xmlns:xlink="http://www.w3.org/1999/xlink">
 <defs>
  <style type="text/css">
*{stroke-linecap:butt;stroke-linejoin:round;}
  </style>
 </defs>
 <g id="figure_1">
  <g id="patch_1">
   <path d="M 0 151.2 
L 460.8 151.2 
L 460.8 0 
L 0 0 
z
" style="fill:#ffffff;"/>
  </g>
  <g id="axes_1">
   <g id="line2d_1">
    <path clip-path="url(#pefd74649eb)" d="M 119.567509 29.325215 
L 119.567509 76.170909 
" style="fill:none;stroke:#c0c0c0;stroke-dasharray:1,1.65;stroke-dashoffset:0;"/>
   </g>
   <g id="line2d_2">
    <path clip-path="url(#pefd74649eb)" d="M 188.169682 29.325215 
L 188.169682 76.170909 
" style="fill:none;stroke:#c0c0c0;stroke-dasharray:1,1.65;stroke-dashoffset:0;"/>
   </g>
   <g id="line2d_3">
    <path clip-path="url(#pefd74649eb)" d="M 256.771855 29.325215 
L 256.771855 76.170909 
" style="fill:none;stroke:#c0c0c0;stroke-dasharray:1,1.65;stroke-dashoffset:0;"/>
   </g>
   <g id="line2d_4">
    <path clip-path="url(#pefd74649eb)" d="M 325.374028 29.325215 
L 325.374028 76.170909 
" style="fill:none;stroke:#c0c0c0;stroke-dasharray:1,1.65;stroke-dashoffset:0;"/>
   </g>
   <g id="line2d_5">
    <path clip-path="url(#pefd74649eb)" d="M 119.567509 76.170909 
L 119.567509 123.016603 
" style="fill:none;stroke:#c0c0c0;stroke-dasharray:1,1.65;stroke-dashoffset:0;"/>
   </g>
   <g id="line2d_6">
    <path clip-path="url(#pefd74649eb)" d="M 188.169682 76.170909 
L 188.169682 123.016603 
" style="fill:none;stroke:#c0c0c0;stroke-dasharray:1,1.65;stroke-dashoffset:0;"/>
   </g>
   <g id="line2d_7">
    <path clip-path="url(#pefd74649eb)" d="M 256.771855 76.170909 
L 256.771855 123.016603 
" style="fill:none;stroke:#c0c0c0;stroke-dasharray:1,1.65;stroke-dashoffset:0;"/>
   </g>
   <g id="line2d_8">
    <path clip-path="url(#pefd74649eb)" d="M 325.374028 76.170909 
L 325.374028 123.016603 
" style="fill:none;stroke:#c0c0c0;stroke-dasharray:1,1.65;stroke-dashoffset:0;"/>
   </g>
   <g id="line2d_9">
    <path clip-path="url(#pefd74649eb)" d="M 73.832727 29.325215 
L 393.976201 29.325215 
" style="fill:none;stroke:#337ab7;stroke-linecap:square;stroke-width:2;"/>
   </g>
   <g id="line2d_10">
    <path clip-path="url(#pefd74649eb)" d="M 73.832727 123.016603 
L 393.976201 123.016603 
" style="fill:none;stroke:#337ab7;stroke-linecap:square;stroke-width:2;"/>
   </g>
   <g id="PathCollection_1">
    <defs>
     <path d="M -0 3 
L 3 -3 
L -3 -3 
z
" id="m3e73ef15f6" style="stroke:#c0c0c0;"/>
    </defs>
    <g clip-path="url(#pefd74649eb)">
     <use style="fill:#c0c0c0;stroke:#c0c0c0;" x="119.567509" xlink:href="#m3e73ef15f6" y="62.117201"/>
    </g>
   </g>
   <g id="PathCollection_2">
    <g clip-path="url(#pefd74649eb)">
     <use style="fill:#c0c0c0;stroke:#c0c0c0;" x="188.169682" xlink:href="#m3e73ef15f6" y="62.117201"/>
    </g>
   </g>
   <g id="PathCollection_3">
    <g clip-path="url(#pefd74649eb)">
     <use style="fill:#c0c0c0;stroke:#c0c0c0;" x="256.771855" xlink:href="#m3e73ef15f6" y="62.117201"/>
    </g>
   </g>
   <g id="PathCollection_4">
    <g clip-path="url(#pefd74649eb)">
     <use style="fill:#c0c0c0;stroke:#c0c0c0;" x="325.374028" xlink:href="#m3e73ef15f6" y="62.117201"/>
    </g>
   </g>
   <g id="PathCollection_5">
    <g clip-path="url(#pefd74649eb)">
     <use style="fill:#c0c0c0;stroke:#c0c0c0;" x="119.567509" xlink:href="#m3e73ef15f6" y="108.962895"/>
    </g>
   </g>
   <g id="PathCollection_6">
    <g clip-path="url(#pefd74649eb)">
     <use style="fill:#c0c0c0;stroke:#c0c0c0;" x="188.169682" xlink:href="#m3e73ef15f6" y="108.962895"/>
    </g>
   </g>
   <g id="PathCollection_7">
    <g clip-path="url(#pefd74649eb)">
     <use style="fill:#c0c0c0;stroke:#c0c0c0;" x="256.771855" xlink:href="#m3e73ef15f6" y="108.962895"/>
    </g>
   </g>
   <g id="PathCollection_8">
    <g clip-path="url(#pefd74649eb)">
     <use style="fill:#c0c0c0;stroke:#c0c0c0;" x="325.374028" xlink:href="#m3e73ef15f6" y="108.962895"/>
    </g>
   </g>
   <g id="PathCollection_9">
    <defs>
     <path d="M 6.266571 0 
L -6.266571 -6.266571 
L -6.266571 6.266571 
z
" id="mbcbc157acf" style="stroke:#337ab7;"/>
    </defs>
    <g clip-path="url(#pefd74649eb)">
     <use style="fill:#337ab7;stroke:#337ab7;" x="393.976201" xlink:href="#mbcbc157acf" y="29.325215"/>
    </g>
   </g>
   <g id="PathCollection_10">
    <defs>
     <path d="M 0 8.862269 
C 2.350301 8.862269 4.604657 7.928485 6.266571 6.266571 
C 7.928485 4.604657 8.862269 2.350301 8.862269 0 
C 8.862269 -2.350301 7.928485 -4.604657 6.266571 -6.266571 
C 4.604657 -7.928485 2.350301 -8.862269 0 -8.862269 
C -2.350301 -8.862269 -4.604657 -7.928485 -6.266571 -6.266571 
C -7.928485 -4.604657 -8.862269 -2.350301 -8.862269 0 
C -8.862269 2.350301 -7.928485 4.604657 -6.266571 6.266571 
C -4.604657 7.928485 -2.350301 8.862269 0 8.862269 
z
" id="mfb9af77bb2" style="stroke:#337ab7;stroke-width:2;"/>
    </defs>
    <g clip-path="url(#pefd74649eb)">
     <use style="fill:#e0e8ff;stroke:#337ab7;stroke-width:2;" x="119.567509" xlink:href="#mfb9af77bb2" y="29.325215"/>
     <use style="fill:#e0e8ff;stroke:#337ab7;stroke-width:2;" x="188.169682" xlink:href="#mfb9af77bb2" y="29.325215"/>
     <use style="fill:#e0e8ff;stroke:#337ab7;stroke-width:2;" x="256.771855" xlink:href="#mfb9af77bb2" y="29.325215"/>
     <use style="fill:#e0e8ff;stroke:#337ab7;stroke-width:2;" x="325.374028" xlink:href="#mfb9af77bb2" y="29.325215"/>
    </g>
   </g>
   <g id="PathCollection_11">
    <g clip-path="url(#pefd74649eb)">
     <use style="fill:#337ab7;stroke:#337ab7;" x="393.976201" xlink:href="#mbcbc157acf" y="123.016603"/>
    </g>
   </g>
   <g id="PathCollection_12">
    <g clip-path="url(#pefd74649eb)">
     <use style="fill:#e0e8ff;stroke:#337ab7;stroke-width:2;" x="119.567509" xlink:href="#mfb9af77bb2" y="123.016603"/>
     <use style="fill:#e0e8ff;stroke:#337ab7;stroke-width:2;" x="188.169682" xlink:href="#mfb9af77bb2" y="123.016603"/>
     <use style="fill:#e0e8ff;stroke:#337ab7;stroke-width:2;" x="256.771855" xlink:href="#mfb9af77bb2" y="123.016603"/>
     <use style="fill:#e0e8ff;stroke:#337ab7;stroke-width:2;" x="325.374028" xlink:href="#mfb9af77bb2" y="123.016603"/>
    </g>
   </g>
   <g id="patch_2">
    <path clip-path="url(#pefd74649eb)" d="M 73.832727 83.197763 
L 393.976201 83.197763 
L 393.976201 66.80177 
L 73.832727 66.80177 
z
" style="fill:#f0f0f0;stroke:#337ab7;stroke-linejoin:miter;stroke-width:2;"/>
   </g>
   <g id="text_1">
    <!-- 1 -->
    <defs>
     <path d="M 12.40625 8.296875 
L 28.515625 8.296875 
L 28.515625 63.921875 
L 10.984375 60.40625 
L 10.984375 69.390625 
L 28.421875 72.90625 
L 38.28125 72.90625 
L 38.28125 8.296875 
L 54.390625 8.296875 
L 54.390625 0 
L 12.40625 0 
z
" id="DejaVuSans-49"/>
    </defs>
    <g transform="translate(116.386259 32.08459)scale(0.1 -0.1)">
     <use xlink:href="#DejaVuSans-49"/>
    </g>
   </g>
   <g id="text_2">
    <!-- 2 -->
    <defs>
     <path d="M 19.1875 8.296875 
L 53.609375 8.296875 
L 53.609375 0 
L 7.328125 0 
L 7.328125 8.296875 
Q 12.9375 14.109375 22.625 23.890625 
Q 32.328125 33.6875 34.8125 36.53125 
Q 39.546875 41.84375 41.421875 45.53125 
Q 43.3125 49.21875 43.3125 52.78125 
Q 43.3125 58.59375 39.234375 62.25 
Q 35.15625 65.921875 28.609375 65.921875 
Q 23.96875 65.921875 18.8125 64.3125 
Q 13.671875 62.703125 7.8125 59.421875 
L 7.8125 69.390625 
Q 13.765625 71.78125 18.9375 73 
Q 24.125 74.21875 28.421875 74.21875 
Q 39.75 74.21875 46.484375 68.546875 
Q 53.21875 62.890625 53.21875 53.421875 
Q 53.21875 48.921875 51.53125 44.890625 
Q 49.859375 40.875 45.40625 35.40625 
Q 44.1875 33.984375 37.640625 27.21875 
Q 31.109375 20.453125 19.1875 8.296875 
z
" id="DejaVuSans-50"/>
    </defs>
    <g transform="translate(184.988432 32.08459)scale(0.1 -0.1)">
     <use xlink:href="#DejaVuSans-50"/>
    </g>
   </g>
   <g id="text_3">
    <!-- 3 -->
    <defs>
     <path d="M 40.578125 39.3125 
Q 47.65625 37.796875 51.625 33 
Q 55.609375 28.21875 55.609375 21.1875 
Q 55.609375 10.40625 48.1875 4.484375 
Q 40.765625 -1.421875 27.09375 -1.421875 
Q 22.515625 -1.421875 17.65625 -0.515625 
Q 12.796875 0.390625 7.625 2.203125 
L 7.625 11.71875 
Q 11.71875 9.328125 16.59375 8.109375 
Q 21.484375 6.890625 26.8125 6.890625 
Q 36.078125 6.890625 40.9375 10.546875 
Q 45.796875 14.203125 45.796875 21.1875 
Q 45.796875 27.640625 41.28125 31.265625 
Q 36.765625 34.90625 28.71875 34.90625 
L 20.21875 34.90625 
L 20.21875 43.015625 
L 29.109375 43.015625 
Q 36.375 43.015625 40.234375 45.921875 
Q 44.09375 48.828125 44.09375 54.296875 
Q 44.09375 59.90625 40.109375 62.90625 
Q 36.140625 65.921875 28.71875 65.921875 
Q 24.65625 65.921875 20.015625 65.03125 
Q 15.375 64.15625 9.8125 62.3125 
L 9.8125 71.09375 
Q 15.4375 72.65625 20.34375 73.4375 
Q 25.25 74.21875 29.59375 74.21875 
Q 40.828125 74.21875 47.359375 69.109375 
Q 53.90625 64.015625 53.90625 55.328125 
Q 53.90625 49.265625 50.4375 45.09375 
Q 46.96875 40.921875 40.578125 39.3125 
z
" id="DejaVuSans-51"/>
    </defs>
    <g transform="translate(253.590605 32.08459)scale(0.1 -0.1)">
     <use xlink:href="#DejaVuSans-51"/>
    </g>
   </g>
   <g id="text_4">
    <!-- 4 -->
    <defs>
     <path d="M 37.796875 64.3125 
L 12.890625 25.390625 
L 37.796875 25.390625 
z
M 35.203125 72.90625 
L 47.609375 72.90625 
L 47.609375 25.390625 
L 58.015625 25.390625 
L 58.015625 17.1875 
L 47.609375 17.1875 
L 47.609375 0 
L 37.796875 0 
L 37.796875 17.1875 
L 4.890625 17.1875 
L 4.890625 26.703125 
z
" id="DejaVuSans-52"/>
    </defs>
    <g transform="translate(322.192778 32.08459)scale(0.1 -0.1)">
     <use xlink:href="#DejaVuSans-52"/>
    </g>
   </g>
   <g id="text_5">
    <!-- map(i: i*2) -->
    <defs>
     <path d="M 52 44.1875 
Q 55.375 50.25 60.0625 53.125 
Q 64.75 56 71.09375 56 
Q 79.640625 56 84.28125 50.015625 
Q 88.921875 44.046875 88.921875 33.015625 
L 88.921875 0 
L 79.890625 0 
L 79.890625 32.71875 
Q 79.890625 40.578125 77.09375 44.375 
Q 74.3125 48.1875 68.609375 48.1875 
Q 61.625 48.1875 57.5625 43.546875 
Q 53.515625 38.921875 53.515625 30.90625 
L 53.515625 0 
L 44.484375 0 
L 44.484375 32.71875 
Q 44.484375 40.625 41.703125 44.40625 
Q 38.921875 48.1875 33.109375 48.1875 
Q 26.21875 48.1875 22.15625 43.53125 
Q 18.109375 38.875 18.109375 30.90625 
L 18.109375 0 
L 9.078125 0 
L 9.078125 54.6875 
L 18.109375 54.6875 
L 18.109375 46.1875 
Q 21.1875 51.21875 25.484375 53.609375 
Q 29.78125 56 35.6875 56 
Q 41.65625 56 45.828125 52.96875 
Q 50 49.953125 52 44.1875 
z
" id="DejaVuSans-109"/>
     <path d="M 34.28125 27.484375 
Q 23.390625 27.484375 19.1875 25 
Q 14.984375 22.515625 14.984375 16.5 
Q 14.984375 11.71875 18.140625 8.90625 
Q 21.296875 6.109375 26.703125 6.109375 
Q 34.1875 6.109375 38.703125 11.40625 
Q 43.21875 16.703125 43.21875 25.484375 
L 43.21875 27.484375 
z
M 52.203125 31.203125 
L 52.203125 0 
L 43.21875 0 
L 43.21875 8.296875 
Q 40.140625 3.328125 35.546875 0.953125 
Q 30.953125 -1.421875 24.3125 -1.421875 
Q 15.921875 -1.421875 10.953125 3.296875 
Q 6 8.015625 6 15.921875 
Q 6 25.140625 12.171875 29.828125 
Q 18.359375 34.515625 30.609375 34.515625 
L 43.21875 34.515625 
L 43.21875 35.40625 
Q 43.21875 41.609375 39.140625 45 
Q 35.0625 48.390625 27.6875 48.390625 
Q 23 48.390625 18.546875 47.265625 
Q 14.109375 46.140625 10.015625 43.890625 
L 10.015625 52.203125 
Q 14.9375 54.109375 19.578125 55.046875 
Q 24.21875 56 28.609375 56 
Q 40.484375 56 46.34375 49.84375 
Q 52.203125 43.703125 52.203125 31.203125 
z
" id="DejaVuSans-97"/>
     <path d="M 18.109375 8.203125 
L 18.109375 -20.796875 
L 9.078125 -20.796875 
L 9.078125 54.6875 
L 18.109375 54.6875 
L 18.109375 46.390625 
Q 20.953125 51.265625 25.265625 53.625 
Q 29.59375 56 35.59375 56 
Q 45.5625 56 51.78125 48.09375 
Q 58.015625 40.1875 58.015625 27.296875 
Q 58.015625 14.40625 51.78125 6.484375 
Q 45.5625 -1.421875 35.59375 -1.421875 
Q 29.59375 -1.421875 25.265625 0.953125 
Q 20.953125 3.328125 18.109375 8.203125 
z
M 48.6875 27.296875 
Q 48.6875 37.203125 44.609375 42.84375 
Q 40.53125 48.484375 33.40625 48.484375 
Q 26.265625 48.484375 22.1875 42.84375 
Q 18.109375 37.203125 18.109375 27.296875 
Q 18.109375 17.390625 22.1875 11.75 
Q 26.265625 6.109375 33.40625 6.109375 
Q 40.53125 6.109375 44.609375 11.75 
Q 48.6875 17.390625 48.6875 27.296875 
z
" id="DejaVuSans-112"/>
     <path d="M 31 75.875 
Q 24.46875 64.65625 21.28125 53.65625 
Q 18.109375 42.671875 18.109375 31.390625 
Q 18.109375 20.125 21.3125 9.0625 
Q 24.515625 -2 31 -13.1875 
L 23.1875 -13.1875 
Q 15.875 -1.703125 12.234375 9.375 
Q 8.59375 20.453125 8.59375 31.390625 
Q 8.59375 42.28125 12.203125 53.3125 
Q 15.828125 64.359375 23.1875 75.875 
z
" id="DejaVuSans-40"/>
     <path d="M 9.421875 54.6875 
L 18.40625 54.6875 
L 18.40625 0 
L 9.421875 0 
z
M 9.421875 75.984375 
L 18.40625 75.984375 
L 18.40625 64.59375 
L 9.421875 64.59375 
z
" id="DejaVuSans-105"/>
     <path d="M 11.71875 12.40625 
L 22.015625 12.40625 
L 22.015625 0 
L 11.71875 0 
z
M 11.71875 51.703125 
L 22.015625 51.703125 
L 22.015625 39.3125 
L 11.71875 39.3125 
z
" id="DejaVuSans-58"/>
     <path id="DejaVuSans-32"/>
     <path d="M 47.015625 60.890625 
L 29.5 51.421875 
L 47.015625 41.890625 
L 44.1875 37.109375 
L 27.78125 47.015625 
L 27.78125 28.609375 
L 22.21875 28.609375 
L 22.21875 47.015625 
L 5.8125 37.109375 
L 2.984375 41.890625 
L 20.515625 51.421875 
L 2.984375 60.890625 
L 5.8125 65.71875 
L 22.21875 55.8125 
L 22.21875 74.21875 
L 27.78125 74.21875 
L 27.78125 55.8125 
L 44.1875 65.71875 
z
" id="DejaVuSans-42"/>
     <path d="M 8.015625 75.875 
L 15.828125 75.875 
Q 23.140625 64.359375 26.78125 53.3125 
Q 30.421875 42.28125 30.421875 31.390625 
Q 30.421875 20.453125 26.78125 9.375 
Q 23.140625 -1.703125 15.828125 -13.1875 
L 8.015625 -13.1875 
Q 14.5 -2 17.703125 9.0625 
Q 20.90625 20.125 20.90625 31.390625 
Q 20.90625 42.671875 17.703125 53.65625 
Q 14.5 64.65625 8.015625 75.875 
z
" id="DejaVuSans-41"/>
    </defs>
    <g transform="translate(207.161495 78.930284)scale(0.1 -0.1)">
     <use xlink:href="#DejaVuSans-109"/>
     <use x="97.412109" xlink:href="#DejaVuSans-97"/>
     <use x="158.691406" xlink:href="#DejaVuSans-112"/>
     <use x="222.167969" xlink:href="#DejaVuSans-40"/>
     <use x="261.181641" xlink:href="#DejaVuSans-105"/>
     <use x="288.964844" xlink:href="#DejaVuSans-58"/>
     <use x="322.65625" xlink:href="#DejaVuSans-32"/>
     <use x="354.443359" xlink:href="#DejaVuSans-105"/>
     <use x="382.226562" xlink:href="#DejaVuSans-42"/>
     <use x="432.226562" xlink:href="#DejaVuSans-50"/>
     <use x="495.849609" xlink:href="#DejaVuSans-41"/>
    </g>
   </g>
   <g id="text_6">
    <!-- 2 -->
    <g transform="translate(116.386259 125.775978)scale(0.1 -0.1)">
     <use xlink:href="#DejaVuSans-50"/>
    </g>
   </g>
   <g id="text_7">
    <!-- 4 -->
    <g transform="translate(184.988432 125.775978)scale(0.1 -0.1)">
     <use xlink:href="#DejaVuSans-52"/>
    </g>
   </g>
   <g id="text_8">
    <!-- 6 -->
    <defs>
     <path d="M 33.015625 40.375 
Q 26.375 40.375 22.484375 35.828125 
Q 18.609375 31.296875 18.609375 23.390625 
Q 18.609375 15.53125 22.484375 10.953125 
Q 26.375 6.390625 33.015625 6.390625 
Q 39.65625 6.390625 43.53125 10.953125 
Q 47.40625 15.53125 47.40625 23.390625 
Q 47.40625 31.296875 43.53125 35.828125 
Q 39.65625 40.375 33.015625 40.375 
z
M 52.59375 71.296875 
L 52.59375 62.3125 
Q 48.875 64.0625 45.09375 64.984375 
Q 41.3125 65.921875 37.59375 65.921875 
Q 27.828125 65.921875 22.671875 59.328125 
Q 17.53125 52.734375 16.796875 39.40625 
Q 19.671875 43.65625 24.015625 45.921875 
Q 28.375 48.1875 33.59375 48.1875 
Q 44.578125 48.1875 50.953125 41.515625 
Q 57.328125 34.859375 57.328125 23.390625 
Q 57.328125 12.15625 50.6875 5.359375 
Q 44.046875 -1.421875 33.015625 -1.421875 
Q 20.359375 -1.421875 13.671875 8.265625 
Q 6.984375 17.96875 6.984375 36.375 
Q 6.984375 53.65625 15.1875 63.9375 
Q 23.390625 74.21875 37.203125 74.21875 
Q 40.921875 74.21875 44.703125 73.484375 
Q 48.484375 72.75 52.59375 71.296875 
z
" id="DejaVuSans-54"/>
    </defs>
    <g transform="translate(253.590605 125.775978)scale(0.1 -0.1)">
     <use xlink:href="#DejaVuSans-54"/>
    </g>
   </g>
   <g id="text_9">
    <!-- 8 -->
    <defs>
     <path d="M 31.78125 34.625 
Q 24.75 34.625 20.71875 30.859375 
Q 16.703125 27.09375 16.703125 20.515625 
Q 16.703125 13.921875 20.71875 10.15625 
Q 24.75 6.390625 31.78125 6.390625 
Q 38.8125 6.390625 42.859375 10.171875 
Q 46.921875 13.96875 46.921875 20.515625 
Q 46.921875 27.09375 42.890625 30.859375 
Q 38.875 34.625 31.78125 34.625 
z
M 21.921875 38.8125 
Q 15.578125 40.375 12.03125 44.71875 
Q 8.5 49.078125 8.5 55.328125 
Q 8.5 64.0625 14.71875 69.140625 
Q 20.953125 74.21875 31.78125 74.21875 
Q 42.671875 74.21875 48.875 69.140625 
Q 55.078125 64.0625 55.078125 55.328125 
Q 55.078125 49.078125 51.53125 44.71875 
Q 48 40.375 41.703125 38.8125 
Q 48.828125 37.15625 52.796875 32.3125 
Q 56.78125 27.484375 56.78125 20.515625 
Q 56.78125 9.90625 50.3125 4.234375 
Q 43.84375 -1.421875 31.78125 -1.421875 
Q 19.734375 -1.421875 13.25 4.234375 
Q 6.78125 9.90625 6.78125 20.515625 
Q 6.78125 27.484375 10.78125 32.3125 
Q 14.796875 37.15625 21.921875 38.8125 
z
M 18.3125 54.390625 
Q 18.3125 48.734375 21.84375 45.5625 
Q 25.390625 42.390625 31.78125 42.390625 
Q 38.140625 42.390625 41.71875 45.5625 
Q 45.3125 48.734375 45.3125 54.390625 
Q 45.3125 60.0625 41.71875 63.234375 
Q 38.140625 66.40625 31.78125 66.40625 
Q 25.390625 66.40625 21.84375 63.234375 
Q 18.3125 60.0625 18.3125 54.390625 
z
" id="DejaVuSans-56"/>
    </defs>
    <g transform="translate(322.192778 125.775978)scale(0.1 -0.1)">
     <use xlink:href="#DejaVuSans-56"/>
    </g>
   </g>
  </g>
 </g>
 <defs>
  <clipPath id="pefd74649eb">
   <rect height="116.424" width="357.12" x="57.6" y="18.144"/>
  </clipPath>
 </defs>
</svg>
