<?xml version="1.0" encoding="utf-8" standalone="no"?>
<!DOCTYPE svg PUBLIC "-//W3C//DTD SVG 1.1//EN"
  "http://www.w3.org/Graphics/SVG/1.1/DTD/svg11.dtd">
<!-- Created with matplotlib (https://matplotlib.org/) -->
<svg height="252pt" version="1.1" viewBox="0 0 460.8 252" width="460.8pt" xmlns="http://www.w3.org/2000/svg" xmlns:xlink="http://www.w3.org/1999/xlink">
 <defs>
  <style type="text/css">
*{stroke-linecap:butt;stroke-linejoin:round;}
  </style>
 </defs>
 <g id="figure_1">
  <g id="patch_1">
   <path d="M 0 252 
L 460.8 252 
L 460.8 0 
L 0 0 
z
" style="fill:#ffffff;"/>
  </g>
  <g id="axes_1">
   <g id="line2d_1">
    <path clip-path="url(#p9661ac36db)" d="M 111.496665 127.147144 
L 111.496665 209.150043 
" style="fill:none;stroke:#337ab7;stroke-linecap:square;stroke-width:2;"/>
   </g>
   <g id="line2d_2">
    <path clip-path="url(#p9661ac36db)" d="M 262.152418 127.147144 
L 262.152418 168.148594 
" style="fill:none;stroke:#337ab7;stroke-linecap:square;stroke-width:2;"/>
   </g>
   <g id="line2d_3">
    <path clip-path="url(#p9661ac36db)" d="M 111.496665 45.144245 
L 111.496665 86.145695 
" style="fill:none;stroke:#c0c0c0;stroke-dasharray:1,1.65;stroke-dashoffset:0;"/>
   </g>
   <g id="line2d_4">
    <path clip-path="url(#p9661ac36db)" d="M 149.160603 45.144245 
L 149.160603 86.145695 
" style="fill:none;stroke:#c0c0c0;stroke-dasharray:1,1.65;stroke-dashoffset:0;"/>
   </g>
   <g id="line2d_5">
    <path clip-path="url(#p9661ac36db)" d="M 186.824542 45.144245 
L 186.824542 86.145695 
" style="fill:none;stroke:#c0c0c0;stroke-dasharray:1,1.65;stroke-dashoffset:0;"/>
   </g>
   <g id="line2d_6">
    <path clip-path="url(#p9661ac36db)" d="M 262.152418 45.144245 
L 262.152418 86.145695 
" style="fill:none;stroke:#c0c0c0;stroke-dasharray:1,1.65;stroke-dashoffset:0;"/>
   </g>
   <g id="line2d_7">
    <path clip-path="url(#p9661ac36db)" d="M 299.816356 45.144245 
L 299.816356 86.145695 
" style="fill:none;stroke:#c0c0c0;stroke-dasharray:1,1.65;stroke-dashoffset:0;"/>
   </g>
   <g id="line2d_8">
    <path clip-path="url(#p9661ac36db)" d="M 337.480294 45.144245 
L 337.480294 86.145695 
" style="fill:none;stroke:#c0c0c0;stroke-dasharray:1,1.65;stroke-dashoffset:0;"/>
   </g>
   <g id="line2d_9">
    <path clip-path="url(#p9661ac36db)" d="M 111.496665 86.145695 
L 111.496665 127.147144 
" style="fill:none;stroke:#c0c0c0;stroke-dasharray:1,1.65;stroke-dashoffset:0;"/>
   </g>
   <g id="line2d_10">
    <path clip-path="url(#p9661ac36db)" d="M 262.152418 86.145695 
L 262.152418 127.147144 
" style="fill:none;stroke:#c0c0c0;stroke-dasharray:1,1.65;stroke-dashoffset:0;"/>
   </g>
   <g id="line2d_11">
    <path clip-path="url(#p9661ac36db)" d="M 280.984387 86.145695 
L 280.984387 168.148594 
" style="fill:none;stroke:#c0c0c0;stroke-dasharray:1,1.65;stroke-dashoffset:0;"/>
   </g>
   <g id="line2d_12">
    <path clip-path="url(#p9661ac36db)" d="M 318.648325 86.145695 
L 318.648325 168.148594 
" style="fill:none;stroke:#c0c0c0;stroke-dasharray:1,1.65;stroke-dashoffset:0;"/>
   </g>
   <g id="line2d_13">
    <path clip-path="url(#p9661ac36db)" d="M 356.312263 86.145695 
L 356.312263 168.148594 
" style="fill:none;stroke:#c0c0c0;stroke-dasharray:1,1.65;stroke-dashoffset:0;"/>
   </g>
   <g id="line2d_14">
    <path clip-path="url(#p9661ac36db)" d="M 130.328634 86.145695 
L 130.328634 209.150043 
" style="fill:none;stroke:#c0c0c0;stroke-dasharray:1,1.65;stroke-dashoffset:0;"/>
   </g>
   <g id="line2d_15">
    <path clip-path="url(#p9661ac36db)" d="M 167.992573 86.145695 
L 167.992573 209.150043 
" style="fill:none;stroke:#c0c0c0;stroke-dasharray:1,1.65;stroke-dashoffset:0;"/>
   </g>
   <g id="line2d_16">
    <path clip-path="url(#p9661ac36db)" d="M 205.656511 86.145695 
L 205.656511 209.150043 
" style="fill:none;stroke:#c0c0c0;stroke-dasharray:1,1.65;stroke-dashoffset:0;"/>
   </g>
   <g id="line2d_17">
    <path clip-path="url(#p9661ac36db)" d="M 73.832727 45.144245 
L 393.976201 45.144245 
" style="fill:none;stroke:#337ab7;stroke-linecap:square;stroke-width:2;"/>
   </g>
   <g id="line2d_18">
    <path clip-path="url(#p9661ac36db)" d="M 73.832727 127.147144 
L 393.976201 127.147144 
" style="fill:none;stroke:#337ab7;stroke-linecap:square;stroke-width:2;"/>
   </g>
   <g id="line2d_19">
    <path clip-path="url(#p9661ac36db)" d="M 262.152418 168.148594 
L 393.976201 168.148594 
" style="fill:none;stroke:#337ab7;stroke-linecap:square;stroke-width:2;"/>
   </g>
   <g id="line2d_20">
    <path clip-path="url(#p9661ac36db)" d="M 111.496665 209.150043 
L 243.320449 209.150043 
" style="fill:none;stroke:#337ab7;stroke-linecap:square;stroke-width:2;"/>
   </g>
   <g id="PathCollection_1">
    <defs>
     <path d="M -0 3 
L 3 -3 
L -3 -3 
z
" id="mcf82e664ed" style="stroke:#c0c0c0;"/>
    </defs>
    <g clip-path="url(#p9661ac36db)">
     <use style="fill:#c0c0c0;stroke:#c0c0c0;" x="111.496665" xlink:href="#mcf82e664ed" y="73.84526"/>
    </g>
   </g>
   <g id="PathCollection_2">
    <g clip-path="url(#p9661ac36db)">
     <use style="fill:#c0c0c0;stroke:#c0c0c0;" x="149.160603" xlink:href="#mcf82e664ed" y="73.84526"/>
    </g>
   </g>
   <g id="PathCollection_3">
    <g clip-path="url(#p9661ac36db)">
     <use style="fill:#c0c0c0;stroke:#c0c0c0;" x="186.824542" xlink:href="#mcf82e664ed" y="73.84526"/>
    </g>
   </g>
   <g id="PathCollection_4">
    <g clip-path="url(#p9661ac36db)">
     <use style="fill:#c0c0c0;stroke:#c0c0c0;" x="262.152418" xlink:href="#mcf82e664ed" y="73.84526"/>
    </g>
   </g>
   <g id="PathCollection_5">
    <g clip-path="url(#p9661ac36db)">
     <use style="fill:#c0c0c0;stroke:#c0c0c0;" x="299.816356" xlink:href="#mcf82e664ed" y="73.84526"/>
    </g>
   </g>
   <g id="PathCollection_6">
    <g clip-path="url(#p9661ac36db)">
     <use style="fill:#c0c0c0;stroke:#c0c0c0;" x="337.480294" xlink:href="#mcf82e664ed" y="73.84526"/>
    </g>
   </g>
   <g id="PathCollection_7">
    <g clip-path="url(#p9661ac36db)">
     <use style="fill:#c0c0c0;stroke:#c0c0c0;" x="111.496665" xlink:href="#mcf82e664ed" y="114.846709"/>
    </g>
   </g>
   <g id="PathCollection_8">
    <g clip-path="url(#p9661ac36db)">
     <use style="fill:#c0c0c0;stroke:#c0c0c0;" x="262.152418" xlink:href="#mcf82e664ed" y="114.846709"/>
    </g>
   </g>
   <g id="PathCollection_9">
    <g clip-path="url(#p9661ac36db)">
     <use style="fill:#c0c0c0;stroke:#c0c0c0;" x="280.984387" xlink:href="#mcf82e664ed" y="155.848159"/>
    </g>
   </g>
   <g id="PathCollection_10">
    <g clip-path="url(#p9661ac36db)">
     <use style="fill:#c0c0c0;stroke:#c0c0c0;" x="318.648325" xlink:href="#mcf82e664ed" y="155.848159"/>
    </g>
   </g>
   <g id="PathCollection_11">
    <g clip-path="url(#p9661ac36db)">
     <use style="fill:#c0c0c0;stroke:#c0c0c0;" x="356.312263" xlink:href="#mcf82e664ed" y="155.848159"/>
    </g>
   </g>
   <g id="PathCollection_12">
    <g clip-path="url(#p9661ac36db)">
     <use style="fill:#c0c0c0;stroke:#c0c0c0;" x="130.328634" xlink:href="#mcf82e664ed" y="196.849608"/>
    </g>
   </g>
   <g id="PathCollection_13">
    <g clip-path="url(#p9661ac36db)">
     <use style="fill:#c0c0c0;stroke:#c0c0c0;" x="167.992573" xlink:href="#mcf82e664ed" y="196.849608"/>
    </g>
   </g>
   <g id="PathCollection_14">
    <g clip-path="url(#p9661ac36db)">
     <use style="fill:#c0c0c0;stroke:#c0c0c0;" x="205.656511" xlink:href="#mcf82e664ed" y="196.849608"/>
    </g>
   </g>
   <g id="PathCollection_15">
    <defs>
     <path d="M 6.266571 0 
L -6.266571 -6.266571 
L -6.266571 6.266571 
z
" id="m115a753193" style="stroke:#337ab7;"/>
    </defs>
    <g clip-path="url(#p9661ac36db)">
     <use style="fill:#337ab7;stroke:#337ab7;" x="393.976201" xlink:href="#m115a753193" y="45.144245"/>
    </g>
   </g>
   <g id="PathCollection_16">
    <defs>
     <path d="M 0 8.862269 
C 2.350301 8.862269 4.604657 7.928485 6.266571 6.266571 
C 7.928485 4.604657 8.862269 2.350301 8.862269 0 
C 8.862269 -2.350301 7.928485 -4.604657 6.266571 -6.266571 
C 4.604657 -7.928485 2.350301 -8.862269 0 -8.862269 
C -2.350301 -8.862269 -4.604657 -7.928485 -6.266571 -6.266571 
C -7.928485 -4.604657 -8.862269 -2.350301 -8.862269 0 
C -8.862269 2.350301 -7.928485 4.604657 -6.266571 6.266571 
C -4.604657 7.928485 -2.350301 8.862269 0 8.862269 
z
" id="m403840e1dd" style="stroke:#337ab7;stroke-width:2;"/>
    </defs>
    <g clip-path="url(#p9661ac36db)">
     <use style="fill:#e0e8ff;stroke:#337ab7;stroke-width:2;" x="111.496665" xlink:href="#m403840e1dd" y="45.144245"/>
     <use style="fill:#e0e8ff;stroke:#337ab7;stroke-width:2;" x="149.160603" xlink:href="#m403840e1dd" y="45.144245"/>
     <use style="fill:#e0e8ff;stroke:#337ab7;stroke-width:2;" x="186.824542" xlink:href="#m403840e1dd" y="45.144245"/>
     <use style="fill:#e0e8ff;stroke:#337ab7;stroke-width:2;" x="262.152418" xlink:href="#m403840e1dd" y="45.144245"/>
     <use style="fill:#e0e8ff;stroke:#337ab7;stroke-width:2;" x="299.816356" xlink:href="#m403840e1dd" y="45.144245"/>
     <use style="fill:#e0e8ff;stroke:#337ab7;stroke-width:2;" x="337.480294" xlink:href="#m403840e1dd" y="45.144245"/>
    </g>
   </g>
   <g id="PathCollection_17">
    <g clip-path="url(#p9661ac36db)">
     <use style="fill:#337ab7;stroke:#337ab7;" x="393.976201" xlink:href="#m115a753193" y="127.147144"/>
    </g>
   </g>
   <g id="PathCollection_18">
    <g clip-path="url(#p9661ac36db)">
     <use style="fill:#e0e8ff;stroke:#337ab7;stroke-width:2;" x="111.496665" xlink:href="#m403840e1dd" y="127.147144"/>
     <use style="fill:#e0e8ff;stroke:#337ab7;stroke-width:2;" x="262.152418" xlink:href="#m403840e1dd" y="127.147144"/>
    </g>
   </g>
   <g id="PathCollection_19">
    <defs>
     <path d="M 0 6.266571 
L 0 -6.266571 
" id="m55bd0f01c4" style="stroke:#337ab7;stroke-width:2;"/>
    </defs>
    <g clip-path="url(#p9661ac36db)">
     <use style="fill:#337ab7;stroke:#337ab7;stroke-width:2;" x="393.976201" xlink:href="#m55bd0f01c4" y="168.148594"/>
    </g>
   </g>
   <g id="PathCollection_20">
    <g clip-path="url(#p9661ac36db)">
     <use style="fill:#e0e8ff;stroke:#337ab7;stroke-width:2;" x="280.984387" xlink:href="#m403840e1dd" y="168.148594"/>
     <use style="fill:#e0e8ff;stroke:#337ab7;stroke-width:2;" x="318.648325" xlink:href="#m403840e1dd" y="168.148594"/>
     <use style="fill:#e0e8ff;stroke:#337ab7;stroke-width:2;" x="356.312263" xlink:href="#m403840e1dd" y="168.148594"/>
    </g>
   </g>
   <g id="PathCollection_21">
    <g clip-path="url(#p9661ac36db)">
     <use style="fill:#337ab7;stroke:#337ab7;stroke-width:2;" x="243.320449" xlink:href="#m55bd0f01c4" y="209.150043"/>
    </g>
   </g>
   <g id="PathCollection_22">
    <g clip-path="url(#p9661ac36db)">
     <use style="fill:#e0e8ff;stroke:#337ab7;stroke-width:2;" x="130.328634" xlink:href="#m403840e1dd" y="209.150043"/>
     <use style="fill:#e0e8ff;stroke:#337ab7;stroke-width:2;" x="167.992573" xlink:href="#m403840e1dd" y="209.150043"/>
     <use style="fill:#e0e8ff;stroke:#337ab7;stroke-width:2;" x="205.656511" xlink:href="#m403840e1dd" y="209.150043"/>
    </g>
   </g>
   <g id="patch_2">
    <path clip-path="url(#p9661ac36db)" d="M 73.832727 92.295912 
L 393.976201 92.295912 
L 393.976201 77.945405 
L 73.832727 77.945405 
z
" style="fill:#f0f0f0;stroke:#337ab7;stroke-linejoin:miter;stroke-width:2;"/>
   </g>
   <g id="text_1">
    <!-- a -->
    <defs>
     <path d="M 34.28125 27.484375 
Q 23.390625 27.484375 19.1875 25 
Q 14.984375 22.515625 14.984375 16.5 
Q 14.984375 11.71875 18.140625 8.90625 
Q 21.296875 6.109375 26.703125 6.109375 
Q 34.1875 6.109375 38.703125 11.40625 
Q 43.21875 16.703125 43.21875 25.484375 
L 43.21875 27.484375 
z
M 52.203125 31.203125 
L 52.203125 0 
L 43.21875 0 
L 43.21875 8.296875 
Q 40.140625 3.328125 35.546875 0.953125 
Q 30.953125 -1.421875 24.3125 -1.421875 
Q 15.921875 -1.421875 10.953125 3.296875 
Q 6 8.015625 6 15.921875 
Q 6 25.140625 12.171875 29.828125 
Q 18.359375 34.515625 30.609375 34.515625 
L 43.21875 34.515625 
L 43.21875 35.40625 
Q 43.21875 41.609375 39.140625 45 
Q 35.0625 48.390625 27.6875 48.390625 
Q 23 48.390625 18.546875 47.265625 
Q 14.109375 46.140625 10.015625 43.890625 
L 10.015625 52.203125 
Q 14.9375 54.109375 19.578125 55.046875 
Q 24.21875 56 28.609375 56 
Q 40.484375 56 46.34375 49.84375 
Q 52.203125 43.703125 52.203125 31.203125 
z
" id="DejaVuSans-97"/>
    </defs>
    <g transform="translate(108.432603 47.90362)scale(0.1 -0.1)">
     <use xlink:href="#DejaVuSans-97"/>
    </g>
   </g>
   <g id="text_2">
    <!-- b -->
    <defs>
     <path d="M 48.6875 27.296875 
Q 48.6875 37.203125 44.609375 42.84375 
Q 40.53125 48.484375 33.40625 48.484375 
Q 26.265625 48.484375 22.1875 42.84375 
Q 18.109375 37.203125 18.109375 27.296875 
Q 18.109375 17.390625 22.1875 11.75 
Q 26.265625 6.109375 33.40625 6.109375 
Q 40.53125 6.109375 44.609375 11.75 
Q 48.6875 17.390625 48.6875 27.296875 
z
M 18.109375 46.390625 
Q 20.953125 51.265625 25.265625 53.625 
Q 29.59375 56 35.59375 56 
Q 45.5625 56 51.78125 48.09375 
Q 58.015625 40.1875 58.015625 27.296875 
Q 58.015625 14.40625 51.78125 6.484375 
Q 45.5625 -1.421875 35.59375 -1.421875 
Q 29.59375 -1.421875 25.265625 0.953125 
Q 20.953125 3.328125 18.109375 8.203125 
L 18.109375 0 
L 9.078125 0 
L 9.078125 75.984375 
L 18.109375 75.984375 
z
" id="DejaVuSans-98"/>
    </defs>
    <g transform="translate(145.986385 47.90362)scale(0.1 -0.1)">
     <use xlink:href="#DejaVuSans-98"/>
    </g>
   </g>
   <g id="text_3">
    <!-- c -->
    <defs>
     <path d="M 48.78125 52.59375 
L 48.78125 44.1875 
Q 44.96875 46.296875 41.140625 47.34375 
Q 37.3125 48.390625 33.40625 48.390625 
Q 24.65625 48.390625 19.8125 42.84375 
Q 14.984375 37.3125 14.984375 27.296875 
Q 14.984375 17.28125 19.8125 11.734375 
Q 24.65625 6.203125 33.40625 6.203125 
Q 37.3125 6.203125 41.140625 7.25 
Q 44.96875 8.296875 48.78125 10.40625 
L 48.78125 2.09375 
Q 45.015625 0.34375 40.984375 -0.53125 
Q 36.96875 -1.421875 32.421875 -1.421875 
Q 20.0625 -1.421875 12.78125 6.34375 
Q 5.515625 14.109375 5.515625 27.296875 
Q 5.515625 40.671875 12.859375 48.328125 
Q 20.21875 56 33.015625 56 
Q 37.15625 56 41.109375 55.140625 
Q 45.0625 54.296875 48.78125 52.59375 
z
" id="DejaVuSans-99"/>
    </defs>
    <g transform="translate(184.075323 47.90362)scale(0.1 -0.1)">
     <use xlink:href="#DejaVuSans-99"/>
    </g>
   </g>
   <g id="text_4">
    <!-- d -->
    <defs>
     <path d="M 45.40625 46.390625 
L 45.40625 75.984375 
L 54.390625 75.984375 
L 54.390625 0 
L 45.40625 0 
L 45.40625 8.203125 
Q 42.578125 3.328125 38.25 0.953125 
Q 33.9375 -1.421875 27.875 -1.421875 
Q 17.96875 -1.421875 11.734375 6.484375 
Q 5.515625 14.40625 5.515625 27.296875 
Q 5.515625 40.1875 11.734375 48.09375 
Q 17.96875 56 27.875 56 
Q 33.9375 56 38.25 53.625 
Q 42.578125 51.265625 45.40625 46.390625 
z
M 14.796875 27.296875 
Q 14.796875 17.390625 18.875 11.75 
Q 22.953125 6.109375 30.078125 6.109375 
Q 37.203125 6.109375 41.296875 11.75 
Q 45.40625 17.390625 45.40625 27.296875 
Q 45.40625 37.203125 41.296875 42.84375 
Q 37.203125 48.484375 30.078125 48.484375 
Q 22.953125 48.484375 18.875 42.84375 
Q 14.796875 37.203125 14.796875 27.296875 
z
" id="DejaVuSans-100"/>
    </defs>
    <g transform="translate(258.978199 47.90362)scale(0.1 -0.1)">
     <use xlink:href="#DejaVuSans-100"/>
    </g>
   </g>
   <g id="text_5">
    <!-- e -->
    <defs>
     <path d="M 56.203125 29.59375 
L 56.203125 25.203125 
L 14.890625 25.203125 
Q 15.484375 15.921875 20.484375 11.0625 
Q 25.484375 6.203125 34.421875 6.203125 
Q 39.59375 6.203125 44.453125 7.46875 
Q 49.3125 8.734375 54.109375 11.28125 
L 54.109375 2.78125 
Q 49.265625 0.734375 44.1875 -0.34375 
Q 39.109375 -1.421875 33.890625 -1.421875 
Q 20.796875 -1.421875 13.15625 6.1875 
Q 5.515625 13.8125 5.515625 26.8125 
Q 5.515625 40.234375 12.765625 48.109375 
Q 20.015625 56 32.328125 56 
Q 43.359375 56 49.78125 48.890625 
Q 56.203125 41.796875 56.203125 29.59375 
z
M 47.21875 32.234375 
Q 47.125 39.59375 43.09375 43.984375 
Q 39.0625 48.390625 32.421875 48.390625 
Q 24.90625 48.390625 20.390625 44.140625 
Q 15.875 39.890625 15.1875 32.171875 
z
" id="DejaVuSans-101"/>
    </defs>
    <g transform="translate(296.739793 47.90362)scale(0.1 -0.1)">
     <use xlink:href="#DejaVuSans-101"/>
    </g>
   </g>
   <g id="text_6">
    <!-- f -->
    <defs>
     <path d="M 37.109375 75.984375 
L 37.109375 68.5 
L 28.515625 68.5 
Q 23.6875 68.5 21.796875 66.546875 
Q 19.921875 64.59375 19.921875 59.515625 
L 19.921875 54.6875 
L 34.71875 54.6875 
L 34.71875 47.703125 
L 19.921875 47.703125 
L 19.921875 0 
L 10.890625 0 
L 10.890625 47.703125 
L 2.296875 47.703125 
L 2.296875 54.6875 
L 10.890625 54.6875 
L 10.890625 58.5 
Q 10.890625 67.625 15.140625 71.796875 
Q 19.390625 75.984375 28.609375 75.984375 
z
" id="DejaVuSans-102"/>
    </defs>
    <g transform="translate(335.720138 47.90362)scale(0.1 -0.1)">
     <use xlink:href="#DejaVuSans-102"/>
    </g>
   </g>
   <g id="text_7">
    <!-- window -->
    <defs>
     <path d="M 4.203125 54.6875 
L 13.1875 54.6875 
L 24.421875 12.015625 
L 35.59375 54.6875 
L 46.1875 54.6875 
L 57.421875 12.015625 
L 68.609375 54.6875 
L 77.59375 54.6875 
L 63.28125 0 
L 52.6875 0 
L 40.921875 44.828125 
L 29.109375 0 
L 18.5 0 
z
" id="DejaVuSans-119"/>
     <path d="M 9.421875 54.6875 
L 18.40625 54.6875 
L 18.40625 0 
L 9.421875 0 
z
M 9.421875 75.984375 
L 18.40625 75.984375 
L 18.40625 64.59375 
L 9.421875 64.59375 
z
" id="DejaVuSans-105"/>
     <path d="M 54.890625 33.015625 
L 54.890625 0 
L 45.90625 0 
L 45.90625 32.71875 
Q 45.90625 40.484375 42.875 44.328125 
Q 39.84375 48.1875 33.796875 48.1875 
Q 26.515625 48.1875 22.3125 43.546875 
Q 18.109375 38.921875 18.109375 30.90625 
L 18.109375 0 
L 9.078125 0 
L 9.078125 54.6875 
L 18.109375 54.6875 
L 18.109375 46.1875 
Q 21.34375 51.125 25.703125 53.5625 
Q 30.078125 56 35.796875 56 
Q 45.21875 56 50.046875 50.171875 
Q 54.890625 44.34375 54.890625 33.015625 
z
" id="DejaVuSans-110"/>
     <path d="M 30.609375 48.390625 
Q 23.390625 48.390625 19.1875 42.75 
Q 14.984375 37.109375 14.984375 27.296875 
Q 14.984375 17.484375 19.15625 11.84375 
Q 23.34375 6.203125 30.609375 6.203125 
Q 37.796875 6.203125 41.984375 11.859375 
Q 46.1875 17.53125 46.1875 27.296875 
Q 46.1875 37.015625 41.984375 42.703125 
Q 37.796875 48.390625 30.609375 48.390625 
z
M 30.609375 56 
Q 42.328125 56 49.015625 48.375 
Q 55.71875 40.765625 55.71875 27.296875 
Q 55.71875 13.875 49.015625 6.21875 
Q 42.328125 -1.421875 30.609375 -1.421875 
Q 18.84375 -1.421875 12.171875 6.21875 
Q 5.515625 13.875 5.515625 27.296875 
Q 5.515625 40.765625 12.171875 48.375 
Q 18.84375 56 30.609375 56 
z
" id="DejaVuSans-111"/>
    </defs>
    <g transform="translate(214.934933 88.90507)scale(0.1 -0.1)">
     <use xlink:href="#DejaVuSans-119"/>
     <use x="81.787109" xlink:href="#DejaVuSans-105"/>
     <use x="109.570312" xlink:href="#DejaVuSans-110"/>
     <use x="172.949219" xlink:href="#DejaVuSans-100"/>
     <use x="236.425781" xlink:href="#DejaVuSans-111"/>
     <use x="297.607422" xlink:href="#DejaVuSans-119"/>
    </g>
   </g>
   <g id="text_8">
    <!-- d -->
    <g transform="translate(277.810168 170.907969)scale(0.1 -0.1)">
     <use xlink:href="#DejaVuSans-100"/>
    </g>
   </g>
   <g id="text_9">
    <!-- e -->
    <g transform="translate(315.571762 170.907969)scale(0.1 -0.1)">
     <use xlink:href="#DejaVuSans-101"/>
    </g>
   </g>
   <g id="text_10">
    <!-- f -->
    <g transform="translate(354.552107 170.907969)scale(0.1 -0.1)">
     <use xlink:href="#DejaVuSans-102"/>
    </g>
   </g>
   <g id="text_11">
    <!-- a -->
    <g transform="translate(127.264572 211.909418)scale(0.1 -0.1)">
     <use xlink:href="#DejaVuSans-97"/>
    </g>
   </g>
   <g id="text_12">
    <!-- b -->
    <g transform="translate(164.818354 211.909418)scale(0.1 -0.1)">
     <use xlink:href="#DejaVuSans-98"/>
    </g>
   </g>
   <g id="text_13">
    <!-- c -->
    <g transform="translate(202.907292 211.909418)scale(0.1 -0.1)">
     <use xlink:href="#DejaVuSans-99"/>
    </g>
   </g>
  </g>
 </g>
 <defs>
  <clipPath id="p9661ac36db">
   <rect height="194.04" width="357.12" x="57.6" y="30.24"/>
  </clipPath>
 </defs>
</svg>
